<svg width="333" height="80" viewBox="0 0 333 80" fill="none" xmlns="http://www.w3.org/2000/svg">
<path d="M78.2013 74.6826H59.7326L54.0823 60.9529H23.3024L18.147 74.6805H0L27.7423 5.3548H47.6236L78.2013 74.6826ZM37.9355 21.9239L27.8433 48.8578H49.0362L37.9355 21.9239ZM145.29 5.3548H160.224V74.6826H143.067V31.3789L124.507 53.1284H121.876L103.316 31.3789V74.6826H86.1592V5.3548H101.093L123.189 31.0736L145.29 5.3548ZM203.698 5.3548C228.826 5.3548 241.741 21.1097 241.741 40.1174C241.741 60.041 229.23 74.6826 201.78 74.6826H173.323V5.3548H203.698ZM190.478 61.9769H201.679C218.936 61.9769 224.083 50.183 224.083 40.0176C224.083 28.122 217.725 18.0626 201.477 18.0626H190.478V61.9769ZM311.368 21.7931H275.876L254.242 0H333V79.3312L311.368 57.5381V21.7931ZM275.851 57.5651V26.1612L253.578 48.594V80H284.75L307.023 57.5651H275.851Z" fill="white"/>
</svg>
