<svg width="372" height="372" viewBox="0 0 372 372" fill="none" xmlns="http://www.w3.org/2000/svg">
<g clip-path="url(#clip0_377_44)">
<path d="M186 372C288.725 372 372 288.725 372 186C372 83.275 288.725 0 186 0C83.275 0 0 83.275 0 186C0 288.725 83.275 372 186 372Z" fill="#50B748"/>
<path d="M193.44 89.28C136.003 89.28 89.2803 136.003 89.2803 193.44C89.2803 250.877 136.003 297.6 193.44 297.6C250.877 297.6 297.6 250.877 297.6 193.44C297.6 136.003 250.877 89.28 193.44 89.28ZM193.44 104.16C242.842 104.16 282.72 144.038 282.72 193.44C282.72 242.842 242.842 282.72 193.44 282.72C144.039 282.72 104.16 242.842 104.16 193.44C104.16 144.038 144.039 104.16 193.44 104.16ZM240.253 150.972L171.12 220.09L146.643 195.612L136.093 206.148L171.12 241.16L250.803 161.508L240.253 150.972Z" fill="white"/>
</g>
<defs>
<clipPath id="clip0_377_44">
<rect width="372" height="372" fill="white"/>
</clipPath>
</defs>
</svg>
