<svg width="413" height="60" viewBox="0 0 413 60" fill="none" xmlns="http://www.w3.org/2000/svg">
<path d="M412.882 50.5848V57.9589H411.636V52.276H411.557L409.491 57.9589H408.418L406.367 52.276V57.9589H405.104V50.5848H406.982L409.049 56.3617L411.005 50.5848H412.882ZM404.3 50.5848V51.6491H401.886V57.9581H400.64V51.6491H398.227V50.5848H404.3ZM373.094 39.5787C374.971 33.551 374.971 29.9975 373.173 27.6801C371.832 26.0833 369.875 25.2849 366.91 25.2849C360.3 25.2849 356.639 29.011 353.689 38.3414C351.796 44.4627 351.796 48.0162 353.594 50.3186C354.84 51.8368 356.906 52.6355 359.857 52.6355C366.373 52.6355 370.143 48.988 373.094 39.5787ZM398.936 26.0833C401.523 29.2931 402.076 33.3637 400.545 38.3421C396.254 52.1034 380.067 59.9938 356.086 59.9938C341.777 59.9938 332.043 57.2387 327.736 51.9154C325.149 48.7221 324.707 44.5571 326.222 39.5787C330.512 25.8174 346.699 17.927 370.68 17.927C384.895 17.927 394.74 20.7607 398.936 26.0833ZM309.498 19.2572H334.898C333.368 21.2929 305.743 58.1307 305.286 58.7573H266.302C266.112 57.5986 261.459 20.6821 261.285 19.2572H285.171C285.344 20.4159 288.657 46.9527 288.657 46.9527C288.657 46.9527 309.135 19.7897 309.498 19.2572ZM230.694 39.5787C232.571 33.551 232.666 29.9975 230.788 27.6801C229.526 26.0833 227.476 25.2849 224.619 25.2849C217.994 25.2849 214.239 29.011 211.383 38.3414C209.411 44.4627 209.411 48.0162 211.288 50.3186C212.534 51.8368 214.601 52.6355 217.456 52.6355C224.083 52.6355 227.838 48.988 230.694 39.5787ZM256.63 26.0833C259.233 29.2931 259.77 33.3637 258.161 38.3421C253.87 52.1034 237.667 59.9938 213.797 59.9938C199.488 59.9938 189.738 57.2387 185.431 51.9154C182.843 48.7221 182.307 44.5571 183.822 39.5787C188.208 25.8174 204.394 17.927 228.28 17.927C242.589 17.927 252.339 20.7607 256.63 26.0833ZM181.865 24.1428C182.843 25.3797 183.38 26.6158 183.111 28.4007L173.188 58.8359H146.888L156.197 30.4367C156.544 29.1998 156.102 28.1352 155.392 27.3368C154.13 25.8182 151.448 24.8475 142.235 25.4733C142.235 25.4733 131.334 58.3978 131.144 58.8359H104.86C105.113 58.1311 117.197 21.4813 117.371 21.121C126.506 19.5242 138.574 18.021 151.101 18.021C168.092 18.0214 178.457 20.0567 181.865 24.1428ZM85.8959 32.4875C86.4325 29.9982 85.628 28.1352 84.7279 27.0705C83.7501 25.8182 81.5884 24.221 77.1241 24.221C70.7819 24.221 66.033 27.2427 64.4235 32.2994L61.2996 43.9317L85.8959 32.4875ZM107.983 32.393C107.983 34.2561 107.542 35.8533 107.178 36.5577C106.374 36.7457 60.4958 46.8595 60.4958 46.8595C60.4958 46.8595 60.0376 49.0828 61.7418 50.2407C63.9824 51.8379 66.3961 52.2764 70.4981 52.4487C80.6111 52.8872 94.3042 47.0317 98.1391 45.3563C97.5237 47.2976 93.5793 55.8303 93.4057 56.2684C91.7014 56.8946 82.2198 59.9005 63.6189 59.9946C56.5506 60.0886 43.9455 59.1962 38.755 52.7145C36.1678 49.5213 35.7107 44.9964 37.493 39.3136C41.7054 25.7396 57.4507 17.9278 80.516 17.9278C93.4057 17.9278 101.814 20.323 105.664 25.0198C107.178 26.9765 107.983 29.4657 107.983 32.393ZM18.4506 0.000732422H44.4825C43.9463 1.67614 26.4186 57.7708 26.1344 58.7573H0.118774C0.654634 57.0665 18.1823 0.971762 18.4506 0.000732422Z" fill="white"/>
</svg>
