<svg width="94" height="99" viewBox="0 0 94 99" fill="none" xmlns="http://www.w3.org/2000/svg">
<path d="M14.0078 15.9155C23.1108 6.32589 36.2157 0.755039 49.4381 0.796988C49.4381 7.53402 49.4464 14.2794 49.4381 21.0165C40.5029 21.1004 31.6432 25.396 26.4247 32.7119C19.8387 41.5632 19.1675 54.2989 24.8055 63.7878C29.6968 72.5133 39.4961 77.9331 49.4381 77.9834C49.4464 84.7205 49.4464 91.4659 49.4381 98.2029C37.7846 98.2113 26.1982 93.9493 17.4057 86.2978C7.01906 77.4297 0.634402 64.0228 0.508554 50.3389C0.20652 37.6703 5.21525 25.0268 14.0078 15.9155ZM50.0673 40.741H93.6441C93.6441 55.3057 93.6525 69.8705 93.6357 84.4268C86.949 84.4184 80.2539 84.4184 73.5672 84.4268C73.5504 76.5823 73.5672 68.7294 73.5588 60.885C65.7311 60.8766 57.9034 60.8766 50.0757 60.885C50.0589 54.1731 50.0673 47.4528 50.0673 40.741Z" fill="white"/>
</svg>
