<svg width="228" height="57" viewBox="0 0 228 57" fill="none" xmlns="http://www.w3.org/2000/svg">
<path d="M207.3 56.8513L222.9 14.0217C222.9 14.0217 211.205 14.0217 199.5 16.4099L184.797 56.8513H207.3ZM204.6 2.53674L201.602 10.7418C213.297 8.3535 225.002 8.3535 225.002 8.3535L228 0.148476C228 0.148476 216.295 0.148476 204.6 2.53674ZM123.294 46.7038C130.347 48.0518 137.538 48.6462 144.89 48.6462C152.541 48.6462 157.94 47.001 158.537 41.7786C158.836 39.3904 156.435 37.5965 152.242 35.2083C147.44 32.5228 143.247 31.1747 139.043 28.3407C134.839 25.5066 133.046 21.1759 134.391 16.3993C136.045 10.8798 139.939 7.74848 145.786 4.76579C152.69 1.3373 158.089 -0.0107422 171.437 -0.0107422C179.835 -0.0107422 187.934 0.732275 195.883 2.37753L193.034 10.1367C185.981 8.7887 178.789 8.19429 171.437 8.19429C163.787 8.19429 158.388 9.83954 157.79 15.0619C157.492 17.4502 159.892 19.244 164.086 21.6323C168.887 24.3178 173.081 25.6658 177.285 28.4999C181.489 31.334 183.281 35.6647 181.937 40.4412C180.283 45.9608 176.388 49.0921 170.541 52.0747C163.638 55.5032 158.238 56.8513 144.89 56.8513C136.493 56.8513 128.394 56.1083 120.445 54.463L123.294 46.7038ZM89.3946 56.8513L102.444 21.1865C106.798 9.24513 90.8991 13.5759 87.2926 16.4099C84.4436 18.501 79.3433 23.4261 77.5401 28.6485L67.19 56.9999H44.6973L57.7469 21.1865C62.1003 9.24513 46.2018 13.5759 42.5953 16.4099C39.7463 18.501 34.646 23.4261 32.8428 28.6485L22.4927 56.9999H0L20.7001 0.148476C27.9025 0.148476 31.7971 1.79373 34.9448 4.92501C36.1398 6.11384 36.8974 7.61049 37.3456 9.25574C41.5496 6.71887 45.2948 4.77641 47.845 3.88479C52.4972 2.09093 58.3444 0.148476 65.5468 0.148476C72.7492 0.148476 76.6438 1.79373 79.7915 4.92501C80.9865 6.11384 81.7441 7.61049 82.1922 9.25574C86.3963 6.71887 90.1415 4.77641 92.6917 3.88479C97.3439 2.09093 103.191 0.15909 110.393 0.15909C117.596 0.15909 121.49 1.80434 124.638 4.93563C127.935 8.06691 127.786 13.8837 126.591 17.1742L111.887 56.8619H89.3946V56.8513Z" fill="white"/>
</svg>
