<svg width="304" height="58" viewBox="0 0 304 58" fill="none" xmlns="http://www.w3.org/2000/svg">
<path d="M298.187 51.9187V50.6672H298.988C299.419 50.6672 300.016 50.7024 300.016 51.2351C300.016 51.8131 299.715 51.9136 299.194 51.9136L298.187 51.9187ZM298.187 52.7882H298.718L299.956 54.9644H301.319L299.946 52.7027C300.657 52.6525 301.239 52.3157 301.239 51.3608C301.239 50.1696 300.417 49.7876 299.039 49.7876H297.039V54.9644H298.192L298.187 52.7882ZM304 52.3861C304 49.3403 301.645 47.5762 299.014 47.5762C296.367 47.5762 294.007 49.3403 294.007 52.3861C294.007 55.4268 296.367 57.201 299.019 57.201C301.64 57.201 304 55.4268 304 52.3861ZM302.557 52.3861C302.557 54.6026 300.938 56.0953 299.014 56.0953V56.0802C297.039 56.0953 295.445 54.6026 295.445 52.3861C295.445 50.1696 297.039 48.6869 299.014 48.6869C300.938 48.6869 302.557 50.1696 302.557 52.3861ZM121.014 0.874462L121.019 55.4972H136.399V0.874462H121.014ZM0 0.799072V55.4972H15.5207V13.9672H27.5434C31.5226 13.9672 34.3591 14.9574 36.2836 17.018C38.7141 19.6165 39.7064 23.8082 39.7064 31.4829V55.4972H54.7461V25.2758C54.7461 3.70411 41.0345 0.799072 27.6236 0.799072H0ZM145.786 0.874462V55.4972H170.733C184.029 55.4972 188.369 53.2807 193.06 48.31C196.377 44.8219 198.517 37.1573 198.517 28.794C198.517 21.1142 196.703 14.2638 193.541 9.99668C187.843 2.36216 179.629 0.874462 167.375 0.874462H145.786ZM161.041 12.766H167.656C177.248 12.766 183.457 17.0934 183.457 28.3014C183.457 39.5195 177.248 43.8419 167.656 43.8419H161.041V12.766ZM98.8376 0.874462L85.993 44.1686L73.6947 0.874462H57.0865L74.6569 55.4972H96.828L114.539 0.874462H98.8376ZM205.674 55.4972H221.064V0.874462H205.674V55.4972ZM248.803 0.894567L227.323 55.4871H242.488L245.886 45.8322H271.31L274.527 55.4871H290.995L269.35 0.894567H248.803ZM258.786 10.8511L268.107 36.4285H249.174L258.786 10.8511Z" fill="#FFFBFB"/>
</svg>
