<svg width="30" height="30" viewBox="0 0 30 30" fill="none" xmlns="http://www.w3.org/2000/svg">
<path d="M15 0C12.0333 0 9.13319 0.879735 6.66645 2.52796C4.19972 4.17618 2.27713 6.51886 1.14181 9.25975C0.00649929 12.0006 -0.290551 15.0166 0.288227 17.9264C0.867006 20.8361 2.29562 23.5088 4.3934 25.6066C6.49119 27.7044 9.16393 29.133 12.0736 29.7118C14.9834 30.2906 17.9994 29.9935 20.7403 28.8582C23.4811 27.7229 25.8238 25.8003 27.472 23.3335C29.1203 20.8668 30 17.9667 30 15C29.9956 11.0231 28.4138 7.21036 25.6017 4.39827C22.7896 1.58618 18.9769 0.00441142 15 0ZM8.27362 24.5236C9.04733 23.4657 10.0597 22.6052 11.2284 22.012C12.3972 21.4188 13.6893 21.1096 15 21.1096C16.3107 21.1096 17.6028 21.4188 18.7716 22.012C19.9403 22.6052 20.9527 23.4657 21.7264 24.5236C19.7605 25.9178 17.41 26.6666 15 26.6666C12.59 26.6666 10.2395 25.9178 8.27362 24.5236ZM11.1111 13.8889C11.1111 13.1197 11.3392 12.3679 11.7665 11.7283C12.1938 11.0888 12.8012 10.5904 13.5118 10.296C14.2224 10.0017 15.0043 9.92467 15.7587 10.0747C16.5131 10.2248 17.206 10.5952 17.7499 11.139C18.2937 11.6829 18.6641 12.3758 18.8142 13.1302C18.9642 13.8846 18.8872 14.6665 18.5929 15.3771C18.2985 16.0877 17.8001 16.6951 17.1606 17.1224C16.521 17.5497 15.7692 17.7778 15 17.7778C13.9686 17.7778 12.9795 17.3681 12.2501 16.6387C11.5208 15.9094 11.1111 14.9203 11.1111 13.8889ZM24.1667 22.2139C23.0864 20.8399 21.7095 19.7279 20.1389 18.9611C21.1399 17.9475 21.8187 16.6605 22.09 15.262C22.3613 13.8635 22.213 12.416 21.6637 11.1016C21.1145 9.78725 20.1887 8.66466 19.003 7.87508C17.8173 7.0855 16.4246 6.66421 15 6.66421C13.5755 6.66421 12.1827 7.0855 10.997 7.87508C9.81128 8.66466 8.88555 9.78725 8.33626 11.1016C7.78698 12.416 7.63867 13.8635 7.90999 15.262C8.18132 16.6605 8.86016 17.9475 9.86112 18.9611C8.29052 19.7279 6.9136 20.8399 5.83334 22.2139C4.47646 20.4938 3.63132 18.4265 3.39466 16.2484C3.15801 14.0704 3.5394 11.8698 4.49518 9.89843C5.45097 7.92708 6.94252 6.26469 8.79909 5.10155C10.6557 3.93841 12.8022 3.32153 14.9931 3.32153C17.1839 3.32153 19.3305 3.93841 21.187 5.10155C23.0436 6.26469 24.5351 7.92708 25.4909 9.89843C26.4467 11.8698 26.8281 14.0704 26.5915 16.2484C26.3548 18.4265 25.5097 20.4938 24.1528 22.2139H24.1667Z" fill="black"/>
</svg>
