<svg width="114" height="19" viewBox="0 0 114 19" fill="none" xmlns="http://www.w3.org/2000/svg">
<path d="M9.24494 0.255066L11.8641 5.89498L18.0374 6.64316L13.4829 10.877L14.679 16.9793L9.24494 13.9561L3.8109 16.9793L5.00697 10.877L0.452479 6.64316L6.62573 5.89498L9.24494 0.255066Z" fill="#FFC633"/>
<path d="M33.0469 0.255005L35.6661 5.89491L41.8394 6.6431L37.2849 10.8769L38.481 16.9793L33.0469 13.956L27.6129 16.9793L28.809 10.8769L24.2545 6.6431L30.4277 5.89491L33.0469 0.255005Z" fill="#FFC633"/>
<path d="M56.8487 0.255005L59.4679 5.89491L65.6412 6.6431L61.0867 10.8769L62.2827 16.9793L56.8487 13.956L51.4147 16.9793L52.6107 10.8769L48.0562 6.6431L54.2295 5.89491L56.8487 0.255005Z" fill="#FFC633"/>
<path d="M80.6507 0.255005L83.2699 5.89491L89.4432 6.6431L84.8887 10.8769L86.0847 16.9793L80.6507 13.956L75.2167 16.9793L76.4127 10.8769L71.8582 6.6431L78.0315 5.89491L80.6507 0.255005Z" fill="#FFC633"/>
<path d="M104.452 0.255066L107.072 5.89498L113.245 6.64316L108.69 10.877L109.886 16.9793L104.452 13.9561L99.0184 16.9793L100.214 10.877L95.66 6.64316L101.833 5.89498L104.452 0.255066Z" fill="#FFC633"/>
</svg>
