<svg width="223" height="36" viewBox="0 0 223 36" fill="none" xmlns="http://www.w3.org/2000/svg">
<path d="M0.0683594 25.8638L2.93945 18.8569C4.22689 19.757 5.37191 20.4178 6.37451 20.8394C7.38851 21.2495 8.33415 21.4546 9.21143 21.4546C9.82666 21.4546 10.3109 21.3407 10.6641 21.1128C11.0173 20.8735 11.1938 20.5545 11.1938 20.1558C11.1938 19.4608 10.3109 18.931 8.54492 18.5664C7.97526 18.4411 7.53092 18.3442 7.21191 18.2759C5.34342 17.8201 3.91357 17.0112 2.92236 15.8491C1.93115 14.687 1.43555 13.2401 1.43555 11.5083C1.43555 8.8195 2.39827 6.632 4.32373 4.9458C6.24919 3.2596 8.77279 2.4165 11.8945 2.4165C13.3301 2.4165 14.7428 2.60449 16.1328 2.98047C17.5228 3.35645 18.9242 3.92611 20.3369 4.68945L17.6025 11.2349C16.7367 10.5968 15.8651 10.1126 14.9878 9.78223C14.1219 9.44043 13.2788 9.26953 12.4585 9.26953C11.8319 9.26953 11.3477 9.37777 11.0059 9.59424C10.6641 9.79932 10.4932 10.0898 10.4932 10.4658C10.4932 11.1722 11.7407 11.7931 14.2358 12.3286C14.6346 12.4198 14.9422 12.4881 15.1587 12.5337C16.8791 12.9211 18.2349 13.7129 19.2261 14.9092C20.2173 16.1055 20.7129 17.5524 20.7129 19.25C20.7129 22.0186 19.7103 24.2801 17.7051 26.0347C15.7113 27.7892 13.1136 28.6665 9.91211 28.6665C8.27148 28.6665 6.63086 28.4329 4.99023 27.9658C3.34961 27.4987 1.70898 26.798 0.0683594 25.8638ZM43.1348 20.5659L30.9497 20.583V20.8564C30.9497 21.7565 31.1092 22.4287 31.4282 22.873C31.7586 23.306 32.2542 23.5225 32.915 23.5225C33.3138 23.5225 33.6613 23.4085 33.9575 23.1807C34.2537 22.9414 34.4873 22.5996 34.6582 22.1553L42.605 22.6851C41.91 24.5991 40.7137 26.0745 39.0161 27.1113C37.3185 28.1481 35.2393 28.6665 32.7783 28.6665C31.4111 28.6665 30.1294 28.4557 28.9331 28.0342C27.7482 27.624 26.6829 27.0202 25.7373 26.2227C24.6777 25.2998 23.8631 24.2345 23.2935 23.0269C22.7238 21.8192 22.439 20.5488 22.439 19.2158C22.439 17.8714 22.7238 16.5954 23.2935 15.3877C23.8745 14.1686 24.6891 13.109 25.7373 12.209C26.6829 11.4001 27.7482 10.7905 28.9331 10.3804C30.118 9.97021 31.3997 9.76514 32.7783 9.76514C34.6696 9.76514 36.3672 10.1468 37.8711 10.9102C39.375 11.6621 40.6283 12.7616 41.6309 14.2085C42.1436 14.9491 42.5252 15.7694 42.7759 16.6694C43.0379 17.5581 43.1689 18.5322 43.1689 19.5918C43.1689 19.8652 43.1632 20.0703 43.1519 20.207C43.1519 20.3438 43.1462 20.4634 43.1348 20.5659ZM31.0181 16.7207L34.8975 16.7378C34.8633 16.0428 34.6867 15.5301 34.3677 15.1997C34.0601 14.8693 33.5986 14.7041 32.9834 14.7041C32.4365 14.7041 31.9922 14.8807 31.6504 15.2339C31.32 15.5757 31.1092 16.0713 31.0181 16.7207ZM46.9971 28V16.8403H44.5874V10.3291H46.9971V4.48438H55.5762V10.3291H58.02V16.8403H55.5762V28H46.9971ZM60.686 16.5498V2.98047H69.6753V16.6182C69.6753 18.2018 69.8633 19.2956 70.2393 19.8994C70.6152 20.4919 71.259 20.7881 72.1704 20.7881C73.0705 20.7881 73.7142 20.4805 74.1016 19.8652C74.4889 19.25 74.6826 18.1676 74.6826 16.6182V2.98047H83.6719V16.5498C83.6719 18.3271 83.5522 19.7912 83.313 20.9419C83.0851 22.0926 82.7148 23.0553 82.2021 23.8301C81.1995 25.391 79.8324 26.5872 78.1006 27.4189C76.3688 28.2507 74.3921 28.6665 72.1704 28.6665C69.9373 28.6665 67.9549 28.2507 66.2231 27.4189C64.4914 26.5872 63.1242 25.391 62.1216 23.8301C61.6203 23.0667 61.2557 22.1154 61.0278 20.9761C60.8 19.8368 60.686 18.3613 60.686 16.5498ZM98.2495 21.7622C98.8989 21.7622 99.4287 21.5286 99.8389 21.0615C100.249 20.583 100.454 19.9564 100.454 19.1816C100.454 18.4069 100.249 17.7803 99.8389 17.3018C99.4287 16.8232 98.8989 16.584 98.2495 16.584C97.5887 16.584 97.0532 16.8232 96.6431 17.3018C96.2443 17.7803 96.0449 18.4069 96.0449 19.1816C96.0449 19.9564 96.2443 20.583 96.6431 21.0615C97.0532 21.5286 97.5887 21.7622 98.2495 21.7622ZM87.8589 35.6221V10.3291H96.0449V12.6704C96.7969 11.6906 97.6229 10.9614 98.5229 10.4829C99.4344 10.0044 100.437 9.76514 101.531 9.76514C103.661 9.76514 105.376 10.6367 106.675 12.3799C107.985 14.1117 108.64 16.4245 108.64 19.3184C108.64 22.0641 107.968 24.3029 106.624 26.0347C105.291 27.7664 103.593 28.6323 101.531 28.6323C100.414 28.6323 99.4002 28.3817 98.4888 27.8804C97.5773 27.3677 96.7741 26.6043 96.0791 25.5903C96.1475 26.0119 96.1987 26.479 96.2329 26.9917C96.2671 27.493 96.2842 28.0513 96.2842 28.6665V35.6221H87.8589ZM109.819 25.8638L112.69 18.8569C113.978 19.757 115.123 20.4178 116.125 20.8394C117.139 21.2495 118.085 21.4546 118.962 21.4546C119.578 21.4546 120.062 21.3407 120.415 21.1128C120.768 20.8735 120.945 20.5545 120.945 20.1558C120.945 19.4608 120.062 18.931 118.296 18.5664C117.726 18.4411 117.282 18.3442 116.963 18.2759C115.094 17.8201 113.665 17.0112 112.673 15.8491C111.682 14.687 111.187 13.2401 111.187 11.5083C111.187 8.8195 112.149 6.632 114.075 4.9458C116 3.2596 118.524 2.4165 121.646 2.4165C123.081 2.4165 124.494 2.60449 125.884 2.98047C127.274 3.35645 128.675 3.92611 130.088 4.68945L127.354 11.2349C126.488 10.5968 125.616 10.1126 124.739 9.78223C123.873 9.44043 123.03 9.26953 122.209 9.26953C121.583 9.26953 121.099 9.37777 120.757 9.59424C120.415 9.79932 120.244 10.0898 120.244 10.4658C120.244 11.1722 121.492 11.7931 123.987 12.3286C124.386 12.4198 124.693 12.4881 124.91 12.5337C126.63 12.9211 127.986 13.7129 128.977 14.9092C129.968 16.1055 130.464 17.5524 130.464 19.25C130.464 22.0186 129.461 24.2801 127.456 26.0347C125.462 27.7892 122.865 28.6665 119.663 28.6665C118.022 28.6665 116.382 28.4329 114.741 27.9658C113.101 27.4987 111.46 26.798 109.819 25.8638ZM143.401 21.7622C144.05 21.7622 144.58 21.5286 144.99 21.0615C145.4 20.583 145.605 19.9564 145.605 19.1816C145.605 18.4069 145.4 17.7803 144.99 17.3018C144.58 16.8232 144.05 16.584 143.401 16.584C142.74 16.584 142.205 16.8232 141.794 17.3018C141.396 17.7803 141.196 18.4069 141.196 19.1816C141.196 19.9564 141.396 20.583 141.794 21.0615C142.205 21.5286 142.74 21.7622 143.401 21.7622ZM133.01 35.6221V10.3291H141.196V12.6704C141.948 11.6906 142.774 10.9614 143.674 10.4829C144.586 10.0044 145.588 9.76514 146.682 9.76514C148.813 9.76514 150.527 10.6367 151.826 12.3799C153.136 14.1117 153.792 16.4245 153.792 19.3184C153.792 22.0641 153.119 24.3029 151.775 26.0347C150.442 27.7664 148.744 28.6323 146.682 28.6323C145.566 28.6323 144.552 28.3817 143.64 27.8804C142.729 27.3677 141.925 26.6043 141.23 25.5903C141.299 26.0119 141.35 26.479 141.384 26.9917C141.418 27.493 141.436 28.0513 141.436 28.6665V35.6221H133.01ZM156.765 28V10.3291H165.088V12.8071C165.828 11.7931 166.654 11.0355 167.566 10.5342C168.477 10.0215 169.486 9.76514 170.591 9.76514C170.762 9.76514 170.887 9.77083 170.967 9.78223C171.058 9.78223 171.138 9.78792 171.206 9.79932V18.3784C170.728 18.1164 170.289 17.9227 169.89 17.7974C169.491 17.672 169.127 17.6094 168.796 17.6094C167.703 17.6094 166.854 17.9056 166.25 18.498C165.658 19.0905 165.361 19.9222 165.361 20.9932V28H156.765ZM182.947 4.82617C182.947 6.09082 182.531 7.09912 181.699 7.85107C180.868 8.59163 179.745 8.96191 178.333 8.96191C176.908 8.96191 175.775 8.58594 174.932 7.83398C174.089 7.08203 173.667 6.07943 173.667 4.82617C173.667 3.57292 174.083 2.5874 174.915 1.86963C175.746 1.14046 176.886 0.775879 178.333 0.775879C179.768 0.775879 180.896 1.14046 181.716 1.86963C182.537 2.5874 182.947 3.57292 182.947 4.82617ZM174.026 28V10.3291H182.605V28H174.026ZM186.501 28V10.3291H194.824V12.7729C195.565 11.759 196.385 11.007 197.285 10.5171C198.185 10.0158 199.199 9.76514 200.327 9.76514C202.207 9.76514 203.694 10.3348 204.788 11.4741C205.893 12.6134 206.445 14.1686 206.445 16.1396V28H197.866V19.0791C197.866 18.2018 197.775 17.598 197.593 17.2676C197.41 16.9372 197.091 16.772 196.636 16.772C196.134 16.772 195.753 16.9657 195.491 17.353C195.229 17.7404 195.098 18.3158 195.098 19.0791V28H186.501ZM211.162 28V16.8403H208.752V10.3291H211.162V4.48438H219.741V10.3291H222.185V16.8403H219.741V28H211.162Z" fill="black"/>
</svg>
