<svg width="233" height="44" viewBox="0 0 233 44" fill="none" xmlns="http://www.w3.org/2000/svg">
<circle cx="22" cy="22" r="22" fill="white"/>
<circle cx="22" cy="22" r="21.5" stroke="black" stroke-opacity="0.2"/>
<path d="M31.7541 17.2592C31.0956 17.5518 30.4006 17.7348 29.6689 17.8445C30.4006 17.4055 30.9859 16.7105 31.2419 15.8691C30.5469 16.2715 29.7787 16.5642 28.9373 16.7471C28.2788 16.052 27.3277 15.613 26.3034 15.613C24.3281 15.613 22.7185 17.2226 22.7185 19.198C22.7185 19.4907 22.7551 19.7467 22.8282 20.0028C19.8651 19.8565 17.1947 18.4298 15.4022 16.2349C15.1096 16.7836 14.9267 17.3689 14.9267 18.0274C14.9267 19.2712 15.5485 20.3686 16.5362 21.0271C15.9509 20.9905 15.4022 20.8442 14.8901 20.5881V20.6247C14.8901 22.3806 16.1338 23.8438 17.78 24.1731C17.4874 24.2462 17.1581 24.2828 16.8289 24.2828C16.6094 24.2828 16.3533 24.2462 16.1338 24.2096C16.6094 25.6363 17.9263 26.6972 19.4993 26.6972C18.2556 27.6483 16.7191 28.2336 15.0364 28.2336C14.7438 28.2336 14.4511 28.2336 14.195 28.197C15.8046 29.2213 17.6703 29.8066 19.7188 29.8066C26.34 29.8066 29.9616 24.3194 29.9616 19.5638C29.9616 19.4175 29.9616 19.2346 29.9616 19.0883C30.6566 18.6127 31.2785 17.9908 31.7541 17.2592Z" fill="black"/>
<circle cx="84.8571" cy="22" r="22" fill="black"/>
<path d="M82.828 31.9059V23.1789H79.8912V19.7778H82.828V17.2696C82.828 14.3589 84.6058 12.7739 87.2024 12.7739C88.4462 12.7739 89.5151 12.8665 89.8267 12.9079V15.9498L88.0258 15.9506C86.6136 15.9506 86.3402 16.6217 86.3402 17.6064V19.7778H89.7081L89.2696 23.1789H86.3402V31.9059H82.828Z" fill="white"/>
<circle cx="147.714" cy="22" r="22" fill="white"/>
<circle cx="147.714" cy="22" r="21.5" stroke="black" stroke-opacity="0.2"/>
<path d="M147.715 13.2741C150.558 13.2741 150.894 13.2848 152.017 13.336C152.692 13.3442 153.361 13.4682 153.994 13.7025C154.453 13.8795 154.87 14.1508 155.218 14.4988C155.566 14.8468 155.838 15.2638 156.015 15.723C156.249 16.3562 156.373 17.0249 156.381 17.7C156.432 18.8228 156.443 19.1594 156.443 22.0016C156.443 24.8439 156.432 25.1805 156.381 26.3033C156.373 26.9784 156.249 27.6471 156.015 28.2802C155.838 28.7394 155.566 29.1564 155.218 29.5044C154.87 29.8524 154.453 30.1237 153.994 30.3008C153.361 30.5351 152.692 30.659 152.017 30.6673C150.895 30.718 150.558 30.7291 147.715 30.7291C144.873 30.7291 144.536 30.7185 143.414 30.6673C142.739 30.659 142.07 30.5351 141.437 30.3008C140.978 30.1237 140.561 29.8524 140.213 29.5044C139.865 29.1564 139.593 28.7394 139.416 28.2802C139.182 27.6471 139.058 26.9784 139.05 26.3033C138.999 25.1805 138.988 24.8439 138.988 22.0016C138.988 19.1594 138.999 18.8228 139.05 17.7C139.058 17.0249 139.182 16.3562 139.416 15.723C139.593 15.2638 139.865 14.8468 140.213 14.4988C140.561 14.1508 140.978 13.8795 141.437 13.7025C142.07 13.4682 142.739 13.3442 143.414 13.336C144.537 13.2853 144.873 13.2741 147.715 13.2741ZM147.715 11.356C144.826 11.356 144.462 11.3681 143.327 11.4198C142.443 11.4374 141.569 11.6047 140.741 11.9146C140.031 12.1821 139.388 12.6012 138.857 13.1428C138.315 13.6743 137.896 14.3176 137.628 15.028C137.318 15.8556 137.151 16.7298 137.133 17.6133C137.082 18.7478 137.07 19.1117 137.07 22.0011C137.07 24.8905 137.082 25.2545 137.134 26.39C137.152 27.2735 137.319 28.1476 137.629 28.9752C137.896 29.6855 138.315 30.3289 138.857 30.8604C139.389 31.4022 140.032 31.8213 140.742 32.0887C141.57 32.3986 142.444 32.5658 143.328 32.5834C144.463 32.6341 144.826 32.6473 147.716 32.6473C150.607 32.6473 150.97 32.6351 152.105 32.5834C152.989 32.5658 153.863 32.3986 154.691 32.0887C155.398 31.8147 156.039 31.3961 156.575 30.8598C157.111 30.3235 157.529 29.6813 157.803 28.9742C158.113 28.1466 158.28 27.2725 158.298 26.389C158.348 25.2545 158.361 24.8905 158.361 22.0011C158.361 19.1117 158.348 18.7478 158.297 17.6123C158.279 16.7287 158.112 15.8546 157.802 15.027C157.535 14.3167 157.115 13.6733 156.574 13.1418C156.042 12.6001 155.399 12.1809 154.689 11.9136C153.861 11.6037 152.987 11.4364 152.103 11.4188C150.969 11.3681 150.605 11.356 147.715 11.356Z" fill="black"/>
<path d="M147.718 16.5369C146.636 16.5369 145.58 16.8575 144.681 17.4581C143.782 18.0588 143.081 18.9126 142.667 19.9115C142.253 20.9103 142.145 22.0095 142.356 23.0699C142.567 24.1303 143.088 25.1043 143.852 25.8688C144.617 26.6333 145.591 27.154 146.651 27.3649C147.712 27.5758 148.811 27.4676 149.81 27.0538C150.808 26.6401 151.662 25.9394 152.263 25.0405C152.864 24.1415 153.184 23.0846 153.184 22.0034C153.184 20.5536 152.608 19.1632 151.583 18.138C150.558 17.1128 149.167 16.5369 147.718 16.5369ZM147.718 25.5518C147.016 25.5518 146.33 25.3437 145.746 24.9538C145.163 24.5639 144.708 24.0097 144.439 23.3613C144.171 22.7129 144.101 21.9995 144.237 21.3112C144.374 20.6228 144.712 19.9906 145.209 19.4943C145.705 18.9981 146.337 18.6601 147.025 18.5232C147.714 18.3863 148.427 18.4566 149.076 18.7251C149.724 18.9937 150.278 19.4485 150.668 20.032C151.058 20.6156 151.266 21.3016 151.266 22.0034C151.266 22.9445 150.892 23.847 150.227 24.5125C149.561 25.1779 148.659 25.5518 147.718 25.5518Z" fill="black"/>
<path d="M153.399 17.5971C154.105 17.5971 154.676 17.0252 154.676 16.3197C154.676 15.6142 154.105 15.0422 153.399 15.0422C152.694 15.0422 152.122 15.6142 152.122 16.3197C152.122 17.0252 152.694 17.5971 153.399 17.5971Z" fill="black"/>
<circle cx="210.571" cy="22" r="22" fill="white"/>
<circle cx="210.571" cy="22" r="21.5" stroke="black" stroke-opacity="0.2"/>
<path fill-rule="evenodd" clip-rule="evenodd" d="M211.525 11.356C205.882 11.356 201.342 15.8957 201.342 21.5387C201.342 26.036 204.27 29.8545 208.301 31.2122C208.81 31.2971 208.979 31.0001 208.979 30.7031C208.979 30.4485 208.979 29.8121 208.979 28.9635C206.137 29.6 205.543 27.6058 205.543 27.6058C205.076 26.4179 204.397 26.1209 204.397 26.1209C203.464 25.4844 204.482 25.4844 204.482 25.4844C205.5 25.5693 206.052 26.5451 206.052 26.5451C206.943 28.115 208.428 27.6483 209.022 27.3937C209.107 26.7149 209.361 26.2906 209.658 26.036C207.41 25.7814 205.034 24.8905 205.034 20.9871C205.034 19.884 205.415 18.9505 206.094 18.2717C206.009 18.0171 205.628 16.9989 206.179 15.5563C206.179 15.5563 207.028 15.3018 208.979 16.617C209.786 16.4049 210.676 16.2776 211.525 16.2776C212.374 16.2776 213.265 16.4049 214.071 16.617C216.022 15.3018 216.871 15.5563 216.871 15.5563C217.423 16.9564 217.083 17.9747 216.956 18.2717C217.592 18.993 218.017 19.884 218.017 20.9871C218.017 24.8905 215.641 25.739 213.349 25.9936C213.731 26.2906 214.028 26.927 214.028 27.8604C214.028 29.2181 214.028 30.3212 214.028 30.6606C214.028 30.9152 214.198 31.2546 214.75 31.1698C218.78 29.8545 221.708 26.036 221.708 21.5387C221.708 15.8957 217.168 11.356 211.525 11.356Z" fill="black"/>
</svg>
