<svg width="366" height="52" viewBox="0 0 366 52" fill="none" xmlns="http://www.w3.org/2000/svg">
<g filter="url(#filter0_dd_22_87)">
<rect x="10" y="7.96973" width="46.6143" height="30.0304" rx="5.37857" fill="white"/>
<rect x="9.88795" y="7.85767" width="46.8384" height="30.2545" rx="5.49062" stroke="#D6DCE5" stroke-width="0.224107"/>
<path d="M33.0221 18.091L30.8479 28.2545H28.2188L30.3933 18.091H33.0221ZM44.0838 24.6536L45.468 20.8368L46.2645 24.6536H44.0838ZM47.0172 28.2545H49.4491L47.327 18.091H45.0823C44.5779 18.091 44.1523 18.3843 43.9628 18.8366L40.0184 28.2545H42.7794L43.3275 26.7368H46.7007L47.0172 28.2545ZM40.1554 24.936C40.1667 22.2535 36.4458 22.1059 36.4715 20.9076C36.4792 20.5425 36.827 20.1552 37.5865 20.0558C37.9638 20.0066 39.0012 19.9689 40.1792 20.511L40.6405 18.3557C40.0078 18.126 39.1936 17.905 38.1809 17.905C35.5824 17.905 33.7533 19.2867 33.7379 21.265C33.7215 22.728 35.0436 23.5444 36.0398 24.0308C37.0641 24.5291 37.4083 24.8482 37.4038 25.2937C37.397 25.976 36.5867 26.2765 35.8307 26.2884C34.5086 26.3093 33.7414 25.9316 33.1299 25.6466L32.6535 27.8736C33.2676 28.1558 34.4015 28.4009 35.5779 28.4134C38.3395 28.4134 40.1464 27.0488 40.1554 24.936ZM29.2652 18.091L25.0055 28.2545H22.2258L20.1298 20.1433C20.0024 19.6437 19.8917 19.461 19.5047 19.2503C18.8733 18.9077 17.8294 18.5857 16.911 18.3863L16.9737 18.091H21.4474C22.0174 18.091 22.5305 18.4705 22.6598 19.1271L23.767 25.0087L26.5029 18.091H29.2652Z" fill="#1434CB"/>
</g>
<g filter="url(#filter1_dd_22_87)">
<rect x="68.6143" y="7.96973" width="46.6143" height="30.0304" rx="5.37857" fill="white"/>
<rect x="68.5022" y="7.85767" width="46.8384" height="30.2545" rx="5.49062" stroke="#D6DCE5" stroke-width="0.224107"/>
<path d="M95.2699 16.8181H88.4066V29.1516H95.2699V16.8181Z" fill="#FF5F00"/>
<path d="M88.8425 22.9849C88.8414 21.7971 89.1105 20.6246 89.6296 19.5562C90.1486 18.4878 90.9039 17.5515 91.8383 16.8181C90.6812 15.9086 89.2915 15.343 87.8282 15.1859C86.3648 15.0288 84.8867 15.2867 83.563 15.9299C82.2392 16.5731 81.1231 17.5759 80.3423 18.8234C79.5614 20.071 79.1473 21.5131 79.1473 22.9849C79.1473 24.4566 79.5614 25.8987 80.3423 27.1463C81.1231 28.3939 82.2392 29.3966 83.563 30.0398C84.8867 30.6831 86.3648 30.9409 87.8282 30.7838C89.2915 30.6267 90.6812 30.0611 91.8383 29.1516C90.9039 28.4183 90.1486 27.482 89.6296 26.4136C89.1105 25.3451 88.8414 24.1727 88.8425 22.9849Z" fill="#EB001B"/>
<path d="M104.529 22.9849C104.529 24.4566 104.115 25.8987 103.334 27.1463C102.553 28.3938 101.437 29.3966 100.113 30.0398C98.7897 30.6831 97.3117 30.9409 95.8484 30.7838C94.385 30.6268 92.9954 30.0611 91.8383 29.1516C92.7719 28.4175 93.5266 27.4811 94.0455 26.4128C94.5645 25.3446 94.8341 24.1725 94.8341 22.9849C94.8341 21.7972 94.5645 20.6251 94.0455 19.5569C93.5266 18.4887 92.7719 17.5522 91.8383 16.8181C92.9954 15.9086 94.385 15.343 95.8484 15.1859C97.3117 15.0288 98.7897 15.2867 100.113 15.9299C101.437 16.5732 102.553 17.5759 103.334 18.8235C104.115 20.071 104.529 21.5131 104.529 22.9849Z" fill="#F79E1B"/>
<path d="M103.781 27.8453V27.5928H103.882V27.5414H103.623V27.5928H103.725V27.8453H103.781ZM104.284 27.8453V27.5409H104.204L104.113 27.7503L104.022 27.5409H103.942V27.8453H103.998V27.6157L104.084 27.8137H104.142L104.228 27.6152V27.8453H104.284Z" fill="#F79E1B"/>
</g>
<g filter="url(#filter2_dd_22_87)">
<rect x="127.229" y="7.96973" width="46.6143" height="30.0304" rx="5.37857" fill="white"/>
<rect x="127.116" y="7.85767" width="46.8384" height="30.2545" rx="5.49062" stroke="#D6DCE5" stroke-width="0.224107"/>
<path fill-rule="evenodd" clip-rule="evenodd" d="M137.426 18.6157H134.738C134.554 18.6157 134.398 18.7494 134.369 18.9308L133.282 25.8216C133.261 25.9576 133.366 26.0801 133.504 26.0801H134.787C134.971 26.0801 135.127 25.9465 135.156 25.7647L135.449 23.9061C135.477 23.7241 135.634 23.5907 135.818 23.5907H136.668C138.439 23.5907 139.46 22.7341 139.727 21.0366C139.848 20.294 139.733 19.7105 139.385 19.3018C139.003 18.8532 138.325 18.6157 137.426 18.6157ZM137.736 21.1325C137.589 22.0967 136.852 22.0967 136.14 22.0967H135.734L136.018 20.2959C136.035 20.1871 136.13 20.1069 136.24 20.1069H136.426C136.911 20.1069 137.369 20.1069 137.605 20.3835C137.746 20.5486 137.79 20.7937 137.736 21.1325ZM145.459 21.1016H144.172C144.063 21.1016 143.968 21.1817 143.951 21.2907L143.894 21.6505L143.804 21.5201C143.525 21.1157 142.904 20.9806 142.284 20.9806C140.862 20.9806 139.647 22.0576 139.411 23.5685C139.288 24.322 139.462 25.0426 139.89 25.5452C140.282 26.0072 140.843 26.1998 141.511 26.1998C142.657 26.1998 143.292 25.463 143.292 25.463L143.235 25.8207C143.213 25.9574 143.319 26.08 143.456 26.08H144.615C144.8 26.08 144.955 25.9463 144.984 25.7645L145.68 21.3601C145.702 21.2247 145.597 21.1016 145.459 21.1016ZM143.665 23.6061C143.541 24.3413 142.958 24.8348 142.213 24.8348C141.84 24.8348 141.541 24.7149 141.349 24.4878C141.159 24.2624 141.087 23.9412 141.147 23.5838C141.263 22.8548 141.857 22.3453 142.589 22.3453C142.955 22.3453 143.252 22.4666 143.448 22.6957C143.644 22.9272 143.721 23.2501 143.665 23.6061ZM151.02 21.1014H152.314C152.495 21.1014 152.6 21.3045 152.497 21.453L148.196 27.6612C148.126 27.7617 148.012 27.8216 147.889 27.8216H146.597C146.415 27.8216 146.309 27.6168 146.415 27.4679L147.754 25.5776L146.329 21.3976C146.28 21.2523 146.387 21.1014 146.542 21.1014H147.813C147.978 21.1014 148.124 21.2098 148.171 21.3678L148.927 23.8923L150.711 21.2652C150.781 21.1627 150.897 21.1014 151.02 21.1014Z" fill="#253B80"/>
<path fill-rule="evenodd" clip-rule="evenodd" d="M165.043 25.821L166.146 18.8042C166.163 18.6953 166.257 18.6151 166.367 18.6147H167.608C167.745 18.6147 167.851 18.7377 167.829 18.8737L166.741 25.764C166.713 25.9459 166.557 26.0795 166.372 26.0795H165.264C165.126 26.0795 165.021 25.957 165.043 25.821ZM156.596 18.6151H153.908C153.724 18.6151 153.568 18.7488 153.539 18.9302L152.452 25.821C152.431 25.957 152.536 26.0795 152.673 26.0795H154.052C154.181 26.0795 154.29 25.9861 154.31 25.8588L154.619 23.9055C154.647 23.7235 154.804 23.5901 154.987 23.5901H155.838C157.608 23.5901 158.63 22.7334 158.897 21.036C159.018 20.2934 158.902 19.7099 158.554 19.3012C158.172 18.8526 157.495 18.6151 156.596 18.6151ZM156.906 21.1319C156.759 22.0961 156.022 22.0961 155.31 22.0961H154.904L155.189 20.2952C155.206 20.1865 155.3 20.1063 155.41 20.1063H155.596C156.081 20.1063 156.539 20.1063 156.776 20.3829C156.917 20.548 156.96 20.7931 156.906 21.1319ZM164.629 21.1009H163.343C163.232 21.1009 163.138 21.1811 163.122 21.2901L163.065 21.6499L162.974 21.5195C162.696 21.1151 162.075 20.98 161.455 20.98C160.032 20.98 158.818 22.057 158.582 23.5679C158.459 24.3214 158.633 25.042 159.061 25.5446C159.454 26.0066 160.014 26.1992 160.682 26.1992C161.828 26.1992 162.463 25.4624 162.463 25.4624L162.406 25.8201C162.384 25.9568 162.489 26.0793 162.627 26.0793H163.786C163.97 26.0793 164.126 25.9457 164.155 25.7639L164.851 21.3595C164.872 21.224 164.767 21.1009 164.629 21.1009ZM162.835 23.6055C162.711 24.3407 162.127 24.8342 161.383 24.8342C161.01 24.8342 160.71 24.7143 160.519 24.4872C160.328 24.2617 160.257 23.9406 160.317 23.5831C160.433 22.8542 161.026 22.3447 161.759 22.3447C162.124 22.3447 162.421 22.466 162.617 22.6951C162.814 22.9265 162.892 23.2495 162.835 23.6055Z" fill="#179BD7"/>
</g>
<g filter="url(#filter3_dd_22_87)">
<rect x="185.843" y="7.96973" width="46.6143" height="30.0304" rx="5.37857" fill="white"/>
<rect x="185.731" y="7.85767" width="46.8384" height="30.2545" rx="5.49062" stroke="#D6DCE5" stroke-width="0.224107"/>
<path d="M200.92 19.0512C201.231 18.6622 201.442 18.1399 201.386 17.6062C200.931 17.6288 200.375 17.9065 200.054 18.2958C199.765 18.6292 199.509 19.1734 199.576 19.6847C200.087 19.729 200.598 19.4293 200.92 19.0512Z" fill="#000008"/>
<path d="M201.38 19.7845C200.638 19.7403 200.007 20.2058 199.653 20.2058C199.298 20.2058 198.756 19.8068 198.169 19.8176C197.405 19.8288 196.696 20.2608 196.308 20.9478C195.51 22.3223 196.097 24.3611 196.873 25.4805C197.25 26.0343 197.703 26.6441 198.301 26.6222C198.866 26.6 199.088 26.2563 199.775 26.2563C200.461 26.2563 200.661 26.6222 201.259 26.6111C201.879 26.6 202.267 26.057 202.643 25.5027C203.075 24.8714 203.252 24.2618 203.263 24.2283C203.252 24.2172 202.067 23.7627 202.056 22.3996C202.045 21.2583 202.987 20.7155 203.031 20.6818C202.499 19.8955 201.668 19.8068 201.38 19.7845Z" fill="#000008"/>
<path d="M207.843 18.24C209.456 18.24 210.579 19.3519 210.579 20.9707C210.579 22.5954 209.432 23.713 207.802 23.713H206.016V26.5532H204.726V18.24L207.843 18.24ZM206.016 22.6299H207.497C208.62 22.6299 209.26 22.0251 209.26 20.9765C209.26 19.9281 208.62 19.3289 207.503 19.3289H206.016V22.6299Z" fill="#000008"/>
<path d="M210.916 24.8307C210.916 23.7706 211.728 23.1196 213.169 23.0389L214.828 22.941V22.4744C214.828 21.8004 214.373 21.3971 213.612 21.3971C212.892 21.3971 212.443 21.7427 212.333 22.2843H211.158C211.227 21.1896 212.16 20.3831 213.658 20.3831C215.127 20.3831 216.066 21.1609 216.066 22.3764V26.5532H214.874V25.5565H214.845C214.494 26.2306 213.727 26.6569 212.932 26.6569C211.746 26.6569 210.916 25.9195 210.916 24.8307ZM214.828 24.2834V23.8052L213.336 23.8974C212.592 23.9493 212.172 24.2776 212.172 24.7961C212.172 25.3261 212.61 25.6718 213.278 25.6718C214.148 25.6718 214.828 25.0726 214.828 24.2834Z" fill="#000008"/>
<path d="M217.192 28.7828V27.7745C217.284 27.7975 217.492 27.7975 217.595 27.7975C218.171 27.7975 218.483 27.5556 218.673 26.9335C218.673 26.9219 218.782 26.5648 218.782 26.559L216.593 20.4926H217.941L219.473 25.4241H219.496L221.029 20.4926H222.342L220.072 26.87C219.554 28.3392 218.955 28.8115 217.699 28.8115C217.595 28.8115 217.284 28.8 217.192 28.7828Z" fill="#000008"/>
</g>
<g filter="url(#filter4_dd_22_87)">
<rect x="244.457" y="7.96973" width="46.6143" height="30.0304" rx="5.37857" fill="white"/>
<rect x="244.345" y="7.85767" width="46.8384" height="30.2545" rx="5.49062" stroke="#D6DCE5" stroke-width="0.224107"/>
<path d="M266.751 26.5838H265.703V18.4255H268.482C269.186 18.4255 269.787 18.6603 270.279 19.13C270.781 19.5996 271.032 20.173 271.032 20.8501C271.032 21.5436 270.781 22.117 270.279 22.5811C269.793 23.0453 269.192 23.2746 268.482 23.2746H266.751V26.5838ZM266.751 19.4303V22.2753H268.504C268.919 22.2753 269.268 22.1333 269.541 21.8548C269.82 21.5763 269.962 21.2378 269.962 20.8555C269.962 20.4787 269.82 20.1456 269.541 19.8672C269.268 19.5777 268.924 19.4358 268.504 19.4358H266.751V19.4303Z" fill="#3C4043"/>
<path d="M273.773 20.8173C274.549 20.8173 275.16 21.0248 275.608 21.4398C276.056 21.8548 276.28 22.4227 276.28 23.1436V26.5838H275.28V25.8084H275.237C274.805 26.4473 274.226 26.764 273.506 26.764C272.889 26.764 272.375 26.5838 271.96 26.2179C271.545 25.8521 271.338 25.3988 271.338 24.8527C271.338 24.2739 271.556 23.8152 271.993 23.4767C272.43 23.1326 273.014 22.9634 273.74 22.9634C274.363 22.9634 274.876 23.078 275.275 23.3074V23.0671C275.275 22.7012 275.133 22.3954 274.844 22.1388C274.554 21.8821 274.216 21.7565 273.828 21.7565C273.244 21.7565 272.779 22.0023 272.441 22.4992L271.518 21.9204C272.026 21.1832 272.779 20.8173 273.773 20.8173ZM272.419 24.8691C272.419 25.1422 272.534 25.3715 272.768 25.5517C272.998 25.7319 273.271 25.8247 273.582 25.8247C274.024 25.8247 274.418 25.6609 274.762 25.3333C275.106 25.0056 275.28 24.6234 275.28 24.1811C274.953 23.9244 274.5 23.7934 273.915 23.7934C273.489 23.7934 273.134 23.8971 272.85 24.0992C272.561 24.3121 272.419 24.5688 272.419 24.8691Z" fill="#3C4043"/>
<path d="M281.981 20.9976L278.486 29.0357H277.405L278.704 26.2234L276.4 20.9976H277.541L279.201 25.0057H279.223L280.839 20.9976H281.981Z" fill="#3C4043"/>
<path d="M262.581 22.6139C262.581 22.272 262.55 21.9449 262.493 21.6304H258.098V23.4324L260.63 23.433C260.527 24.0326 260.196 24.5437 259.69 24.8844V26.0536H261.197C262.077 25.2394 262.581 24.0358 262.581 22.6139Z" fill="#4285F4"/>
<path d="M259.691 24.8845C259.271 25.1673 258.731 25.3328 258.1 25.3328C256.879 25.3328 255.844 24.5104 255.473 23.4019H253.919V24.6076C254.689 26.1355 256.271 27.184 258.1 27.184C259.363 27.184 260.425 26.7684 261.197 26.0531L259.691 24.8845Z" fill="#34A853"/>
<path d="M255.327 22.5074C255.327 22.1961 255.378 21.8952 255.473 21.6124V20.4067H253.919C253.6 21.0385 253.421 21.7516 253.421 22.5074C253.421 23.2631 253.601 23.9763 253.919 24.6081L255.473 23.4024C255.378 23.1195 255.327 22.8186 255.327 22.5074Z" fill="#FABB05"/>
<path d="M258.1 19.6815C258.789 19.6815 259.407 19.919 259.894 20.3832L261.23 19.0491C260.419 18.2939 259.362 17.8303 258.1 17.8303C256.272 17.8303 254.689 18.8788 253.919 20.4067L255.473 21.6124C255.844 20.5039 256.879 19.6815 258.1 19.6815Z" fill="#E94235"/>
</g>
<defs>
<filter id="filter0_dd_22_87" x="0.811593" y="3.26346" width="64.9911" height="48.4071" filterUnits="userSpaceOnUse" color-interpolation-filters="sRGB">
<feFlood flood-opacity="0" result="BackgroundImageFix"/>
<feColorMatrix in="SourceAlpha" type="matrix" values="0 0 0 0 0 0 0 0 0 0 0 0 0 0 0 0 0 0 127 0" result="hardAlpha"/>
<feOffset dy="0.448214"/>
<feGaussianBlur stdDeviation="2.24107"/>
<feColorMatrix type="matrix" values="0 0 0 0 0.717647 0 0 0 0 0.717647 0 0 0 0 0.717647 0 0 0 0.08 0"/>
<feBlend mode="normal" in2="BackgroundImageFix" result="effect1_dropShadow_22_87"/>
<feColorMatrix in="SourceAlpha" type="matrix" values="0 0 0 0 0 0 0 0 0 0 0 0 0 0 0 0 0 0 127 0" result="hardAlpha"/>
<feOffset dy="4.48214"/>
<feGaussianBlur stdDeviation="4.48214"/>
<feColorMatrix type="matrix" values="0 0 0 0 0.717647 0 0 0 0 0.717647 0 0 0 0 0.717647 0 0 0 0.08 0"/>
<feBlend mode="normal" in2="effect1_dropShadow_22_87" result="effect2_dropShadow_22_87"/>
<feBlend mode="normal" in="SourceGraphic" in2="effect2_dropShadow_22_87" result="shape"/>
</filter>
<filter id="filter1_dd_22_87" x="59.4259" y="3.26346" width="64.9911" height="48.4071" filterUnits="userSpaceOnUse" color-interpolation-filters="sRGB">
<feFlood flood-opacity="0" result="BackgroundImageFix"/>
<feColorMatrix in="SourceAlpha" type="matrix" values="0 0 0 0 0 0 0 0 0 0 0 0 0 0 0 0 0 0 127 0" result="hardAlpha"/>
<feOffset dy="0.448214"/>
<feGaussianBlur stdDeviation="2.24107"/>
<feColorMatrix type="matrix" values="0 0 0 0 0.717647 0 0 0 0 0.717647 0 0 0 0 0.717647 0 0 0 0.08 0"/>
<feBlend mode="normal" in2="BackgroundImageFix" result="effect1_dropShadow_22_87"/>
<feColorMatrix in="SourceAlpha" type="matrix" values="0 0 0 0 0 0 0 0 0 0 0 0 0 0 0 0 0 0 127 0" result="hardAlpha"/>
<feOffset dy="4.48214"/>
<feGaussianBlur stdDeviation="4.48214"/>
<feColorMatrix type="matrix" values="0 0 0 0 0.717647 0 0 0 0 0.717647 0 0 0 0 0.717647 0 0 0 0.08 0"/>
<feBlend mode="normal" in2="effect1_dropShadow_22_87" result="effect2_dropShadow_22_87"/>
<feBlend mode="normal" in="SourceGraphic" in2="effect2_dropShadow_22_87" result="shape"/>
</filter>
<filter id="filter2_dd_22_87" x="118.04" y="3.26346" width="64.9911" height="48.4071" filterUnits="userSpaceOnUse" color-interpolation-filters="sRGB">
<feFlood flood-opacity="0" result="BackgroundImageFix"/>
<feColorMatrix in="SourceAlpha" type="matrix" values="0 0 0 0 0 0 0 0 0 0 0 0 0 0 0 0 0 0 127 0" result="hardAlpha"/>
<feOffset dy="0.448214"/>
<feGaussianBlur stdDeviation="2.24107"/>
<feColorMatrix type="matrix" values="0 0 0 0 0.717647 0 0 0 0 0.717647 0 0 0 0 0.717647 0 0 0 0.08 0"/>
<feBlend mode="normal" in2="BackgroundImageFix" result="effect1_dropShadow_22_87"/>
<feColorMatrix in="SourceAlpha" type="matrix" values="0 0 0 0 0 0 0 0 0 0 0 0 0 0 0 0 0 0 127 0" result="hardAlpha"/>
<feOffset dy="4.48214"/>
<feGaussianBlur stdDeviation="4.48214"/>
<feColorMatrix type="matrix" values="0 0 0 0 0.717647 0 0 0 0 0.717647 0 0 0 0 0.717647 0 0 0 0.08 0"/>
<feBlend mode="normal" in2="effect1_dropShadow_22_87" result="effect2_dropShadow_22_87"/>
<feBlend mode="normal" in="SourceGraphic" in2="effect2_dropShadow_22_87" result="shape"/>
</filter>
<filter id="filter3_dd_22_87" x="176.654" y="3.26346" width="64.9911" height="48.4071" filterUnits="userSpaceOnUse" color-interpolation-filters="sRGB">
<feFlood flood-opacity="0" result="BackgroundImageFix"/>
<feColorMatrix in="SourceAlpha" type="matrix" values="0 0 0 0 0 0 0 0 0 0 0 0 0 0 0 0 0 0 127 0" result="hardAlpha"/>
<feOffset dy="0.448214"/>
<feGaussianBlur stdDeviation="2.24107"/>
<feColorMatrix type="matrix" values="0 0 0 0 0.717647 0 0 0 0 0.717647 0 0 0 0 0.717647 0 0 0 0.08 0"/>
<feBlend mode="normal" in2="BackgroundImageFix" result="effect1_dropShadow_22_87"/>
<feColorMatrix in="SourceAlpha" type="matrix" values="0 0 0 0 0 0 0 0 0 0 0 0 0 0 0 0 0 0 127 0" result="hardAlpha"/>
<feOffset dy="4.48214"/>
<feGaussianBlur stdDeviation="4.48214"/>
<feColorMatrix type="matrix" values="0 0 0 0 0.717647 0 0 0 0 0.717647 0 0 0 0 0.717647 0 0 0 0.08 0"/>
<feBlend mode="normal" in2="effect1_dropShadow_22_87" result="effect2_dropShadow_22_87"/>
<feBlend mode="normal" in="SourceGraphic" in2="effect2_dropShadow_22_87" result="shape"/>
</filter>
<filter id="filter4_dd_22_87" x="235.269" y="3.26346" width="64.9911" height="48.4071" filterUnits="userSpaceOnUse" color-interpolation-filters="sRGB">
<feFlood flood-opacity="0" result="BackgroundImageFix"/>
<feColorMatrix in="SourceAlpha" type="matrix" values="0 0 0 0 0 0 0 0 0 0 0 0 0 0 0 0 0 0 127 0" result="hardAlpha"/>
<feOffset dy="0.448214"/>
<feGaussianBlur stdDeviation="2.24107"/>
<feColorMatrix type="matrix" values="0 0 0 0 0.717647 0 0 0 0 0.717647 0 0 0 0 0.717647 0 0 0 0.08 0"/>
<feBlend mode="normal" in2="BackgroundImageFix" result="effect1_dropShadow_22_87"/>
<feColorMatrix in="SourceAlpha" type="matrix" values="0 0 0 0 0 0 0 0 0 0 0 0 0 0 0 0 0 0 127 0" result="hardAlpha"/>
<feOffset dy="4.48214"/>
<feGaussianBlur stdDeviation="4.48214"/>
<feColorMatrix type="matrix" values="0 0 0 0 0.717647 0 0 0 0 0.717647 0 0 0 0 0.717647 0 0 0 0.08 0"/>
<feBlend mode="normal" in2="effect1_dropShadow_22_87" result="effect2_dropShadow_22_87"/>
<feBlend mode="normal" in="SourceGraphic" in2="effect2_dropShadow_22_87" result="shape"/>
</filter>
</defs>
</svg>
