<svg width="33" height="30" viewBox="0 0 33 30" fill="none" xmlns="http://www.w3.org/2000/svg">
<path d="M13.983 27.2222C13.983 27.7716 13.819 28.3087 13.5117 28.7655C13.2044 29.2223 12.7676 29.5783 12.2566 29.7885C11.7456 29.9988 11.1833 30.0538 10.6408 29.9466C10.0983 29.8394 9.60001 29.5749 9.2089 29.1864C8.81779 28.7979 8.55144 28.303 8.44353 27.7641C8.33562 27.2253 8.39101 26.6668 8.60267 26.1592C8.81434 25.6516 9.17279 25.2178 9.63269 24.9126C10.0926 24.6074 10.6333 24.4444 11.1864 24.4444C11.9281 24.4444 12.6394 24.7371 13.1639 25.258C13.6884 25.779 13.983 26.4855 13.983 27.2222ZM25.7287 24.4444C25.1756 24.4444 24.6349 24.6074 24.175 24.9126C23.7151 25.2178 23.3567 25.6516 23.145 26.1592C22.9333 26.6668 22.8779 27.2253 22.9858 27.7641C23.0938 28.303 23.3601 28.7979 23.7512 29.1864C24.1423 29.5749 24.6406 29.8394 25.1831 29.9466C25.7256 30.0538 26.2879 29.9988 26.7989 29.7885C27.3099 29.5783 27.7467 29.2223 28.054 28.7655C28.3613 28.3087 28.5253 27.7716 28.5253 27.2222C28.5253 26.4855 28.2307 25.779 27.7062 25.258C27.1817 24.7371 26.4704 24.4444 25.7287 24.4444ZM32.9258 7.7125L29.1098 20.0319C28.8662 20.8286 28.3704 21.5261 27.6961 22.0207C27.0218 22.5154 26.2048 22.7809 25.3666 22.7778H11.5961C10.7458 22.775 9.91929 22.4987 9.24042 21.9901C8.56154 21.4816 8.06685 20.7682 7.83048 19.9569L3.04969 3.33333H1.67796C1.23294 3.33333 0.806141 3.15774 0.491463 2.84518C0.176784 2.53262 0 2.10869 0 1.66667C0 1.22464 0.176784 0.800716 0.491463 0.488155C0.806141 0.175595 1.23294 0 1.67796 0H3.47058C4.07792 0.00186366 4.66828 0.199281 5.1531 0.562636C5.63791 0.925991 5.99104 1.43569 6.15951 2.01528L7.17887 5.55555H31.3219C31.5845 5.55553 31.8435 5.61673 32.0779 5.73423C32.3124 5.85173 32.5158 6.02224 32.6718 6.23206C32.8278 6.44187 32.932 6.68512 32.9762 6.94225C33.0203 7.19938 33.003 7.4632 32.9258 7.7125ZM29.0497 8.88889H8.1367L11.0578 19.0417C11.0912 19.1578 11.1618 19.26 11.259 19.3326C11.3561 19.4053 11.4745 19.4446 11.5961 19.4444H25.3666C25.4863 19.4447 25.6029 19.4068 25.6993 19.3363C25.7957 19.2658 25.8668 19.1664 25.9021 19.0528L29.0497 8.88889Z" fill="black"/>
</svg>
