<svg width="236" height="91" viewBox="0 0 236 91" fill="none" xmlns="http://www.w3.org/2000/svg">
<g clip-path="url(#clip0_22_57)">
<rect width="236" height="91" fill="black"/>
<path d="M0.956406 1.26892H17.9009V18.2483H0.956406V1.26892Z" fill="white"/>
<path d="M17.4788 89.7311V28.581H1.43881V89.7311H17.4788ZM124.09 90.3353V75.3499C121.739 75.3499 119.749 75.2291 118.301 74.9874C116.613 74.7457 115.347 74.1414 114.503 73.2955C113.658 72.4495 113.116 71.241 112.814 69.67C112.573 68.1594 112.452 66.1653 112.452 63.7483V42.3579H124.09V28.581H112.452V4.71315H96.352V63.8692C96.352 68.8845 96.7742 73.1142 97.6184 76.498C98.4626 79.8214 99.9098 82.5405 101.9 84.595C103.89 86.6494 106.543 88.0996 109.739 89.006C112.995 89.9123 117.095 90.3353 121.98 90.3353H124.09ZM216.23 89.7311V0H200.129V89.7311H216.23ZM80.8548 34.5631C76.3925 29.7291 70.1213 27.3121 62.1616 27.3121C58.3023 27.3121 54.8049 28.0976 51.609 29.6687C48.4733 31.2397 45.7598 33.415 43.6493 36.1946L42.7448 37.3426V28.581H26.8857V89.7311H42.8654V57.162V58.3101C43.0463 52.5697 44.4332 48.34 47.0864 45.6208C49.9205 42.7205 53.3577 41.2703 57.2772 41.2703C61.9204 41.2703 65.4781 42.7205 67.8298 45.5C70.1213 48.2795 71.3273 52.2072 71.3273 57.2224V89.6706H87.5482V54.9867C87.6085 46.2855 85.317 39.3971 80.8548 34.5631ZM191.808 59.0352C191.808 54.6242 191.024 50.5153 189.517 46.6481C187.949 42.8413 185.778 39.4575 183.064 36.5571C180.291 33.6567 176.974 31.421 173.115 29.7895C169.256 28.158 164.974 27.3725 160.331 27.3725C155.929 27.3725 151.768 28.2185 147.909 29.8499C144.05 31.5418 140.673 33.7776 137.839 36.6175C135.005 39.4575 132.713 42.8413 131.085 46.7085C129.397 50.5757 128.613 54.745 128.613 59.156C128.613 63.5671 129.397 67.7364 130.965 71.6036C132.532 75.4708 134.764 78.8546 137.537 81.6946C140.311 84.5345 143.748 86.8307 147.728 88.4621C151.708 90.154 156.11 91 160.813 91C174.441 91 182.883 84.7762 187.949 78.9754L176.371 70.1534C173.959 73.0538 168.17 76.9814 160.934 76.9814C156.412 76.9814 152.673 75.9542 149.839 73.8393C147.005 71.7849 145.075 68.8845 144.05 65.3194L143.869 64.7756H191.808V59.0352ZM143.99 53.4157C143.99 48.9442 149.115 41.1494 160.15 41.089C171.185 41.089 176.371 48.8838 176.371 53.3552L143.99 53.4157ZM234.561 81.755C234.26 81.0299 233.838 80.4256 233.295 79.8818C232.752 79.338 232.149 78.915 231.426 78.6129C230.702 78.3107 229.918 78.1295 229.134 78.1295C228.29 78.1295 227.566 78.3107 226.843 78.6129C226.119 78.915 225.516 79.338 224.973 79.8818C224.431 80.4256 224.009 81.0299 223.707 81.755C223.406 82.4801 223.225 83.2656 223.225 84.0511C223.225 84.8971 223.406 85.6222 223.707 86.3473C224.009 87.0724 224.431 87.6766 224.973 88.2204C225.516 88.7643 226.119 89.1872 226.843 89.4894C227.566 89.7915 228.35 89.9728 229.134 89.9728C229.978 89.9728 230.702 89.7915 231.426 89.4894C232.149 89.1872 232.752 88.7643 233.295 88.2204C233.838 87.6766 234.26 87.0724 234.561 86.3473C234.863 85.6222 235.044 84.8366 235.044 84.0511C235.044 83.2656 234.863 82.4801 234.561 81.755ZM233.596 85.9847C233.355 86.589 232.993 87.1328 232.571 87.5558C232.149 87.9787 231.606 88.3413 231.003 88.583C230.4 88.8247 229.797 88.9455 229.074 88.9455C228.41 88.9455 227.747 88.8247 227.144 88.583C226.541 88.3413 225.998 87.9787 225.576 87.5558C225.154 87.1328 224.792 86.589 224.551 85.9847C224.31 85.3805 224.189 84.7762 224.189 84.0511C224.189 83.3864 224.31 82.7218 224.551 82.1175C224.792 81.5133 225.154 80.9694 225.576 80.5465C225.998 80.1235 226.541 79.7609 227.144 79.5192C227.747 79.2775 228.35 79.1567 229.074 79.1567C229.737 79.1567 230.4 79.2775 231.003 79.5192C231.606 79.7609 232.149 80.1235 232.571 80.5465C232.993 80.9694 233.355 81.5133 233.596 82.1175C233.838 82.7218 233.958 83.326 233.958 84.0511C234.018 84.7762 233.838 85.3805 233.596 85.9847ZM230.22 84.5345C230.702 84.4741 231.064 84.2928 231.365 83.9907C231.667 83.6886 231.848 83.2656 231.848 82.6613C231.848 81.9967 231.667 81.5133 231.245 81.1507C230.883 80.7882 230.22 80.6069 229.436 80.6069H226.782V87.4349H228.049V84.6554H228.953L230.642 87.4349H231.968L230.22 84.5345ZM229.556 83.5677H228.049V81.6341H229.556C229.737 81.6341 229.918 81.6945 230.099 81.755C230.28 81.8154 230.4 81.9362 230.461 82.0571C230.521 82.1779 230.581 82.3592 230.581 82.6009C230.581 82.8426 230.521 83.0239 230.461 83.1447C230.34 83.2656 230.22 83.3864 230.099 83.4469C229.918 83.5073 229.737 83.5677 229.556 83.5677Z" fill="white"/>
</g>
<defs>
<clipPath id="clip0_22_57">
<rect width="236" height="91" fill="white"/>
</clipPath>
</defs>
</svg>
