<svg width="179" height="86" viewBox="0 0 179 86" fill="none" xmlns="http://www.w3.org/2000/svg">
<path fill-rule="evenodd" clip-rule="evenodd" d="M10.3059 48.0009C11.1293 48.5133 12.0412 48.9103 13.0079 49.1772C14.921 49.6986 16.9736 49.6983 18.8865 49.1764C19.8586 48.9106 20.7759 48.5139 21.6046 48.0009C22.4401 47.4816 23.1747 46.8507 23.7806 46.1321C24.9671 44.7164 25.6045 43.013 25.6015 41.2656C25.6015 40.4074 25.4515 39.545 25.1458 38.7155C24.5216 37.0172 23.2814 35.5372 21.6084 34.4941C20.7807 33.9794 19.8636 33.5815 18.8912 33.3154C16.9752 32.7912 14.9184 32.7909 13.0022 33.3146C11.0421 33.8565 9.3361 34.9288 8.13659 36.3728C7.54213 37.0881 7.08263 37.8802 6.77517 38.7196C6.47137 39.5491 6.32136 40.4098 6.32136 41.2656C6.32136 42.1213 6.47042 42.973 6.77422 43.7951C7.39881 45.4877 8.63693 46.9621 10.3059 48.0009ZM31.1953 0.493408H0.690552L15.9747 30.3908L31.1953 0.493408Z" fill="white"/>
<path fill-rule="evenodd" clip-rule="evenodd" d="M40.8753 72.5548C40.8742 73.3662 40.6891 74.1696 40.3303 74.9196C39.6025 76.4324 38.21 77.6347 36.4578 78.2631C35.5891 78.5726 34.6586 78.7322 33.7188 78.7328H32.2681C31.332 78.7328 30.395 78.5721 29.5291 78.2631C27.7766 77.6351 26.384 76.4327 25.6566 74.9196C25.298 74.1696 25.1132 73.3662 25.1126 72.5548L25.1003 58.5414L8.59137 58.5217V69.1014C8.59137 71.2531 9.08885 73.4056 10.0401 75.3934C10.9983 77.3879 12.4012 79.2004 14.169 80.7279C15.9379 82.2538 18.0369 83.4648 20.3467 84.2919C22.6578 85.1162 25.1336 85.5415 27.6342 85.5436H37.841C40.3332 85.5436 42.8253 85.1141 45.1285 84.2919C47.4383 83.4649 49.5374 82.2539 51.3062 80.7279C53.0742 79.2006 54.4771 77.388 55.4351 75.3934C56.3895 73.3979 56.8817 71.2603 56.8838 69.1014V0.556543L40.8677 0.576218L40.8753 72.5548ZM162.891 58.5414L162.878 70.9834C162.878 71.7916 162.691 72.6015 162.335 73.3482C161.975 74.0975 161.447 74.7785 160.783 75.3524C160.119 75.9264 159.33 76.3816 158.462 76.6917C157.593 77.0016 156.662 77.1614 155.723 77.1622H154.273C153.333 77.1613 152.403 77.0015 151.534 76.6917C150.666 76.3816 149.877 75.9264 149.213 75.3524C148.551 74.781 148.018 74.095 147.66 73.3482C147.302 72.6015 147.115 71.7925 147.115 70.9834L147.123 0.576218L131.108 0.556543L131.114 83.7796H178.297L178.31 58.5217L162.891 58.5414ZM117.761 46.0731C116.97 44.4565 115.821 42.989 114.378 41.7533C113.03 40.599 111.411 39.7069 109.631 39.1369C111.112 38.5231 112.472 37.7115 113.66 36.7319C114.87 35.7392 115.939 34.563 116.658 33.2367C117.381 31.8989 117.755 30.4407 117.756 28.9645L117.765 13.8175C117.765 12.0666 117.361 10.3149 116.588 8.69934C115.815 7.08373 114.669 5.60501 113.238 4.36974C111.808 3.13447 110.096 2.14428 108.226 1.47542C106.355 0.80655 104.328 0.456543 102.3 0.456543H70.4496V83.7837H103.512C106.571 83.7835 109.561 83.0003 112.104 81.5331C114.647 80.0659 116.63 77.9806 117.8 75.5409C118.576 73.9178 118.976 72.1793 118.978 70.4236C118.978 64.0374 118.959 57.652 118.978 51.2666C118.977 49.4827 118.564 47.7169 117.761 46.0731ZM85.9901 7.63538L94.3723 7.61079C95.3122 7.61015 96.243 7.7697 97.1113 8.08028C97.9797 8.39085 98.7685 8.84635 99.4325 9.42066C100.096 9.9928 100.627 10.6781 100.985 11.4248C101.343 12.1715 101.526 12.9806 101.53 13.7896L101.574 30.4957C101.575 31.5108 101.226 32.5031 100.573 33.3471C99.9199 34.1911 98.9913 34.8487 97.9049 35.2368C97.1834 35.4926 96.4112 35.6254 95.6311 35.6278L85.9901 35.6597V7.63538ZM101.728 72.9876C101.43 73.6102 100.992 74.1758 100.44 74.6522C99.8881 75.1286 99.2328 75.5063 98.5116 75.7639C97.7903 76.0205 97.018 76.1533 96.2378 76.1548L85.9911 76.1868V43.1468L94.9789 43.1222C95.9189 43.1211 96.8498 43.2805 97.7182 43.5911C98.5866 43.9017 99.3754 44.3574 100.039 44.9321C100.701 45.5034 101.233 46.1895 101.591 46.9362C101.949 47.6829 102.134 48.492 102.136 49.301L102.181 71.0244C102.18 71.6981 102.026 72.365 101.728 72.9876Z" fill="white"/>
</svg>
