<svg width="184" height="49" viewBox="0 0 184 49" fill="none" xmlns="http://www.w3.org/2000/svg">
<g filter="url(#filter0_dd_349_161)">
<rect x="10" y="4.96964" width="46.6143" height="30.0304" rx="5.37857" fill="white"/>
<rect x="9.88795" y="4.85758" width="46.8384" height="30.2545" rx="5.49062" stroke="#D6DCE5" stroke-width="0.224107"/>
<path d="M33.0222 15.0909L30.848 25.2544H28.2189L30.3935 15.0909H33.0222ZM44.0839 21.6535L45.4681 17.8367L46.2646 21.6535H44.0839ZM47.0173 25.2544H49.4492L47.3271 15.0909H45.0824C44.578 15.0909 44.1524 15.3842 43.963 15.8365L40.0185 25.2544H42.7795L43.3276 23.7367H46.7008L47.0173 25.2544ZM40.1555 21.9359C40.1668 19.2534 36.4459 19.1058 36.4716 17.9075C36.4794 17.5424 36.8271 17.1551 37.5866 17.0557C37.9639 17.0065 39.0013 16.9689 40.1793 17.5109L40.6406 15.3556C40.0079 15.1259 39.1937 14.9049 38.1811 14.9049C35.5825 14.9049 33.7534 16.2866 33.738 18.2649C33.7216 19.7279 35.0437 20.5443 36.0399 21.0307C37.0642 21.529 37.4084 21.8481 37.4039 22.2937C37.3971 22.9759 36.5868 23.2764 35.8308 23.2883C34.5087 23.3092 33.7415 22.9316 33.13 22.6465L32.6536 24.8735C33.2677 25.1557 34.4016 25.4008 35.578 25.4133C38.3396 25.4133 40.1465 24.0488 40.1555 21.9359ZM29.2653 15.0909L25.0056 25.2544H22.226L20.1299 17.1432C20.0025 16.6436 19.8918 16.4609 19.5049 16.2502C18.8734 15.9076 17.8295 15.5856 16.9111 15.3862L16.9739 15.0909H21.4475C22.0175 15.0909 22.5306 15.4705 22.6599 16.127L23.7671 22.0086L26.503 15.0909H29.2653Z" fill="#1434CB"/>
</g>
<g filter="url(#filter1_dd_349_161)">
<rect x="68.6143" y="4.96964" width="46.6143" height="30.0304" rx="5.37857" fill="white"/>
<rect x="68.5022" y="4.85758" width="46.8384" height="30.2545" rx="5.49062" stroke="#D6DCE5" stroke-width="0.224107"/>
<path d="M95.27 13.818H88.4068V26.1515H95.27V13.818Z" fill="#FF5F00"/>
<path d="M88.8426 19.9848C88.8415 18.797 89.1107 17.6245 89.6297 16.5561C90.1487 15.4877 90.904 14.5514 91.8384 13.818C90.6813 12.9085 89.2916 12.3429 87.8283 12.1858C86.3649 12.0288 84.8869 12.2866 83.5631 12.9298C82.2393 13.5731 81.1232 14.5758 80.3424 15.8233C79.5615 17.0709 79.1475 18.513 79.1475 19.9848C79.1475 21.4566 79.5615 22.8986 80.3424 24.1462C81.1232 25.3938 82.2393 26.3965 83.5631 27.0397C84.8869 27.683 86.3649 27.9408 87.8283 27.7837C89.2916 27.6267 90.6813 27.061 91.8384 26.1515C90.904 25.4182 90.1487 24.4819 89.6297 23.4135C89.1107 22.3451 88.8415 21.1726 88.8426 19.9848Z" fill="#EB001B"/>
<path d="M104.529 19.9848C104.529 21.4565 104.115 22.8986 103.334 24.1462C102.553 25.3937 101.437 26.3965 100.114 27.0397C98.7899 27.683 97.3118 27.9408 95.8485 27.7837C94.3851 27.6267 92.9955 27.061 91.8384 26.1515C92.772 25.4174 93.5267 24.481 94.0457 23.4127C94.5646 22.3445 94.8343 21.1724 94.8343 19.9848C94.8343 18.7972 94.5646 17.625 94.0457 16.5568C93.5267 15.4886 92.772 14.5521 91.8384 13.818C92.9955 12.9085 94.3851 12.3429 95.8485 12.1858C97.3118 12.0288 98.7899 12.2866 100.114 12.9298C101.437 13.5731 102.553 14.5758 103.334 15.8234C104.115 17.0709 104.529 18.513 104.529 19.9848Z" fill="#F79E1B"/>
<path d="M103.781 24.8452V24.5927H103.882V24.5413H103.623V24.5927H103.725V24.8452H103.781ZM104.284 24.8452V24.5408H104.205L104.113 24.7502L104.022 24.5408H103.942V24.8452H103.998V24.6156L104.084 24.8136H104.142L104.228 24.6151V24.8452H104.284Z" fill="#F79E1B"/>
</g>
<g filter="url(#filter2_dd_349_161)">
<rect x="127.229" y="4.96964" width="46.6143" height="30.0304" rx="5.37857" fill="white"/>
<rect x="127.116" y="4.85758" width="46.8384" height="30.2545" rx="5.49062" stroke="#D6DCE5" stroke-width="0.224107"/>
<path fill-rule="evenodd" clip-rule="evenodd" d="M137.426 15.6157H134.738C134.554 15.6157 134.398 15.7493 134.369 15.9308L133.282 22.8215C133.261 22.9575 133.366 23.0801 133.504 23.0801H134.787C134.971 23.0801 135.127 22.9464 135.156 22.7646L135.449 20.9061C135.477 20.7241 135.634 20.5906 135.818 20.5906H136.668C138.439 20.5906 139.46 19.734 139.727 18.0366C139.848 17.294 139.732 16.7105 139.384 16.3017C139.003 15.8531 138.325 15.6157 137.426 15.6157ZM137.736 18.1324C137.589 19.0967 136.852 19.0967 136.139 19.0967H135.734L136.018 17.2958C136.035 17.1871 136.13 17.1069 136.24 17.1069H136.425C136.911 17.1069 137.369 17.1069 137.605 17.3834C137.746 17.5485 137.789 17.7937 137.736 18.1324ZM145.459 18.1015H144.172C144.063 18.1015 143.968 18.1817 143.951 18.2906L143.894 18.6505L143.804 18.5201C143.525 18.1157 142.904 17.9806 142.284 17.9806C140.862 17.9806 139.647 19.0576 139.411 20.5684C139.288 21.3219 139.462 22.0425 139.89 22.5451C140.282 23.0072 140.843 23.1997 141.511 23.1997C142.657 23.1997 143.292 22.4629 143.292 22.4629L143.235 22.8206C143.213 22.9573 143.319 23.0799 143.456 23.0799H144.615C144.799 23.0799 144.955 22.9463 144.984 22.7644L145.68 18.3601C145.702 18.2246 145.597 18.1015 145.459 18.1015ZM143.665 20.6061C143.541 21.3412 142.957 21.8347 142.213 21.8347C141.84 21.8347 141.541 21.7149 141.349 21.4878C141.159 21.2623 141.086 20.9412 141.147 20.5837C141.263 19.8547 141.856 19.3452 142.589 19.3452C142.955 19.3452 143.252 19.4665 143.447 19.6956C143.644 19.9271 143.721 20.25 143.665 20.6061ZM151.02 18.1013H152.313C152.495 18.1013 152.6 18.3044 152.497 18.453L148.196 24.6611C148.126 24.7617 148.011 24.8215 147.889 24.8215H146.597C146.415 24.8215 146.309 24.6167 146.414 24.4678L147.754 22.5775L146.329 18.3975C146.28 18.2522 146.387 18.1013 146.542 18.1013H147.813C147.978 18.1013 148.123 18.2097 148.171 18.3677L148.927 20.8923L150.711 18.2651C150.781 18.1626 150.897 18.1013 151.02 18.1013Z" fill="#253B80"/>
<path fill-rule="evenodd" clip-rule="evenodd" d="M165.043 22.8209L166.146 15.8042C166.162 15.6952 166.257 15.615 166.367 15.6147H167.608C167.745 15.6147 167.851 15.7376 167.829 15.8736L166.741 22.764C166.713 22.9458 166.557 23.0795 166.372 23.0795H165.263C165.126 23.0795 165.021 22.9569 165.043 22.8209ZM156.596 15.615H153.908C153.724 15.615 153.568 15.7487 153.539 15.9302L152.452 22.8209C152.431 22.9569 152.536 23.0795 152.673 23.0795H154.052C154.18 23.0795 154.29 22.986 154.31 22.8587L154.619 20.9055C154.647 20.7235 154.804 20.59 154.987 20.59H155.838C157.608 20.59 158.63 19.7334 158.897 18.036C159.017 17.2934 158.902 16.7099 158.554 16.3011C158.172 15.8525 157.495 15.615 156.596 15.615ZM156.906 18.1318C156.759 19.0961 156.022 19.0961 155.309 19.0961H154.904L155.189 17.2952C155.206 17.1864 155.3 17.1063 155.41 17.1063H155.596C156.081 17.1063 156.539 17.1063 156.776 17.3828C156.917 17.5479 156.96 17.793 156.906 18.1318ZM164.629 18.1009H163.342C163.232 18.1009 163.138 18.1811 163.122 18.29L163.065 18.6498L162.974 18.5195C162.696 18.1151 162.075 17.98 161.455 17.98C160.032 17.98 158.818 19.057 158.582 20.5678C158.459 21.3213 158.633 22.0419 159.061 22.5445C159.454 23.0066 160.014 23.1991 160.682 23.1991C161.827 23.1991 162.463 22.4623 162.463 22.4623L162.406 22.82C162.384 22.9567 162.489 23.0793 162.627 23.0793H163.786C163.97 23.0793 164.126 22.9456 164.155 22.7638L164.851 18.3595C164.872 18.224 164.767 18.1009 164.629 18.1009ZM162.835 20.6054C162.711 21.3406 162.127 21.8341 161.383 21.8341C161.01 21.8341 160.71 21.7143 160.518 21.4872C160.328 21.2617 160.257 20.9406 160.317 20.5831C160.433 19.8541 161.026 19.3446 161.759 19.3446C162.124 19.3446 162.421 19.4659 162.617 19.695C162.814 19.9265 162.892 20.2494 162.835 20.6054Z" fill="#179BD7"/>
</g>
<defs>
<filter id="filter0_dd_349_161" x="0.812081" y="0.263371" width="64.9911" height="48.4071" filterUnits="userSpaceOnUse" color-interpolation-filters="sRGB">
<feFlood flood-opacity="0" result="BackgroundImageFix"/>
<feColorMatrix in="SourceAlpha" type="matrix" values="0 0 0 0 0 0 0 0 0 0 0 0 0 0 0 0 0 0 127 0" result="hardAlpha"/>
<feOffset dy="0.448214"/>
<feGaussianBlur stdDeviation="2.24107"/>
<feColorMatrix type="matrix" values="0 0 0 0 0.717647 0 0 0 0 0.717647 0 0 0 0 0.717647 0 0 0 0.08 0"/>
<feBlend mode="normal" in2="BackgroundImageFix" result="effect1_dropShadow_349_161"/>
<feColorMatrix in="SourceAlpha" type="matrix" values="0 0 0 0 0 0 0 0 0 0 0 0 0 0 0 0 0 0 127 0" result="hardAlpha"/>
<feOffset dy="4.48214"/>
<feGaussianBlur stdDeviation="4.48214"/>
<feColorMatrix type="matrix" values="0 0 0 0 0.717647 0 0 0 0 0.717647 0 0 0 0 0.717647 0 0 0 0.08 0"/>
<feBlend mode="normal" in2="effect1_dropShadow_349_161" result="effect2_dropShadow_349_161"/>
<feBlend mode="normal" in="SourceGraphic" in2="effect2_dropShadow_349_161" result="shape"/>
</filter>
<filter id="filter1_dd_349_161" x="59.4263" y="0.263371" width="64.9911" height="48.4071" filterUnits="userSpaceOnUse" color-interpolation-filters="sRGB">
<feFlood flood-opacity="0" result="BackgroundImageFix"/>
<feColorMatrix in="SourceAlpha" type="matrix" values="0 0 0 0 0 0 0 0 0 0 0 0 0 0 0 0 0 0 127 0" result="hardAlpha"/>
<feOffset dy="0.448214"/>
<feGaussianBlur stdDeviation="2.24107"/>
<feColorMatrix type="matrix" values="0 0 0 0 0.717647 0 0 0 0 0.717647 0 0 0 0 0.717647 0 0 0 0.08 0"/>
<feBlend mode="normal" in2="BackgroundImageFix" result="effect1_dropShadow_349_161"/>
<feColorMatrix in="SourceAlpha" type="matrix" values="0 0 0 0 0 0 0 0 0 0 0 0 0 0 0 0 0 0 127 0" result="hardAlpha"/>
<feOffset dy="4.48214"/>
<feGaussianBlur stdDeviation="4.48214"/>
<feColorMatrix type="matrix" values="0 0 0 0 0.717647 0 0 0 0 0.717647 0 0 0 0 0.717647 0 0 0 0.08 0"/>
<feBlend mode="normal" in2="effect1_dropShadow_349_161" result="effect2_dropShadow_349_161"/>
<feBlend mode="normal" in="SourceGraphic" in2="effect2_dropShadow_349_161" result="shape"/>
</filter>
<filter id="filter2_dd_349_161" x="118.041" y="0.263371" width="64.9911" height="48.4071" filterUnits="userSpaceOnUse" color-interpolation-filters="sRGB">
<feFlood flood-opacity="0" result="BackgroundImageFix"/>
<feColorMatrix in="SourceAlpha" type="matrix" values="0 0 0 0 0 0 0 0 0 0 0 0 0 0 0 0 0 0 127 0" result="hardAlpha"/>
<feOffset dy="0.448214"/>
<feGaussianBlur stdDeviation="2.24107"/>
<feColorMatrix type="matrix" values="0 0 0 0 0.717647 0 0 0 0 0.717647 0 0 0 0 0.717647 0 0 0 0.08 0"/>
<feBlend mode="normal" in2="BackgroundImageFix" result="effect1_dropShadow_349_161"/>
<feColorMatrix in="SourceAlpha" type="matrix" values="0 0 0 0 0 0 0 0 0 0 0 0 0 0 0 0 0 0 127 0" result="hardAlpha"/>
<feOffset dy="4.48214"/>
<feGaussianBlur stdDeviation="4.48214"/>
<feColorMatrix type="matrix" values="0 0 0 0 0.717647 0 0 0 0 0.717647 0 0 0 0 0.717647 0 0 0 0.08 0"/>
<feBlend mode="normal" in2="effect1_dropShadow_349_161" result="effect2_dropShadow_349_161"/>
<feBlend mode="normal" in="SourceGraphic" in2="effect2_dropShadow_349_161" result="shape"/>
</filter>
</defs>
</svg>
